<svg width="75" height="75" viewBox="0 0 75 75" fill="none" xmlns="http://www.w3.org/2000/svg">
<path d="M25 9.375C16.3719 9.375 9.375 16.3719 9.375 25V50C9.375 58.6281 16.3719 65.625 25 65.625H50C58.6281 65.625 65.625 58.6281 65.625 50V25C65.625 16.3719 58.6281 9.375 50 9.375H25ZM56.25 15.625C57.975 15.625 59.375 17.025 59.375 18.75C59.375 20.475 57.975 21.875 56.25 21.875C54.525 21.875 53.125 20.475 53.125 18.75C53.125 17.025 54.525 15.625 56.25 15.625ZM37.5 21.875C46.1281 21.875 53.125 28.8719 53.125 37.5C53.125 46.1281 46.1281 53.125 37.5 53.125C28.8719 53.125 21.875 46.1281 21.875 37.5C21.875 28.8719 28.8719 21.875 37.5 21.875ZM37.5 28.125C35.0136 28.125 32.629 29.1127 30.8709 30.8709C29.1127 32.629 28.125 35.0136 28.125 37.5C28.125 39.9864 29.1127 42.371 30.8709 44.1291C32.629 45.8873 35.0136 46.875 37.5 46.875C39.9864 46.875 42.371 45.8873 44.1291 44.1291C45.8873 42.371 46.875 39.9864 46.875 37.5C46.875 35.0136 45.8873 32.629 44.1291 30.8709C42.371 29.1127 39.9864 28.125 37.5 28.125Z" fill="#E50D42"/>
</svg>
