<svg width="68" height="68" viewBox="0 0 68 68" fill="none" xmlns="http://www.w3.org/2000/svg">
<path d="M53.8333 8.5H14.1667C11.0358 8.5 8.5 11.0358 8.5 14.1667V53.8333C8.5 56.9642 11.0358 59.5 14.1667 59.5H53.8333C56.9642 59.5 59.5 56.9642 59.5 53.8333V14.1667C59.5 11.0358 56.9642 8.5 53.8333 8.5ZM25.5 48.1667H18.3515V28.3333H25.5V48.1667ZM21.7997 24.6982C19.6152 24.6982 18.156 23.2418 18.156 21.2982C18.156 19.3545 19.6123 17.8982 22.0405 17.8982C24.225 17.8982 25.6842 19.3545 25.6842 21.2982C25.6842 23.2418 24.2278 24.6982 21.7997 24.6982ZM51 48.1667H44.081V37.3263C44.081 34.3287 42.2365 33.6373 41.5452 33.6373C40.8538 33.6373 38.5475 34.0992 38.5475 37.3263C38.5475 37.7882 38.5475 48.1667 38.5475 48.1667H31.399V28.3333H38.5475V31.1015C39.4683 29.4865 41.3128 28.3333 44.7723 28.3333C48.2318 28.3333 51 31.1015 51 37.3263V48.1667Z" fill="#E50D42"/>
</svg>
