<svg width="74" height="74" viewBox="0 0 74 74" fill="none" xmlns="http://www.w3.org/2000/svg">
<path d="M67.8333 12.3301C65.4283 13.7577 60.6029 15.7032 57.7663 16.2644C57.683 16.286 57.6152 16.3137 57.535 16.3353C55.0283 13.8625 51.5934 12.3301 47.7917 12.3301C40.1296 12.3301 33.9167 18.543 33.9167 26.2051C33.9167 26.609 33.8828 27.3521 33.9167 27.7467C23.5783 27.7467 15.7096 22.3324 10.0671 15.4134C9.45351 16.9551 9.18526 19.3909 9.18526 21.6787C9.18526 25.9985 12.5615 30.2412 17.8186 32.8712C16.8504 33.121 15.7836 33.2998 14.6736 33.2998C12.8822 33.2998 10.9859 32.8281 9.25001 31.3974C9.25001 31.4498 9.25001 31.4992 9.25001 31.5547C9.25001 37.5918 15.6572 41.7019 21.3552 42.8458C20.1989 43.5272 17.8679 43.5951 16.7302 43.5951C15.9285 43.5951 13.0918 43.2282 12.3333 43.0863C13.9182 48.0351 19.6347 50.8162 25.0829 50.9149C20.8218 54.2572 17.8648 55.4967 9.13901 55.4967H6.16667C11.6797 59.0302 18.7004 61.6665 25.7366 61.6665C48.6458 61.6665 61.6667 44.2056 61.6667 27.7467C61.6667 27.4816 61.6605 26.9266 61.6513 26.3685C61.6513 26.313 61.6667 26.2606 61.6667 26.2051C61.6667 26.1218 61.642 26.0417 61.642 25.9584C61.6328 25.5391 61.6235 25.1475 61.6143 24.944C64.0501 23.1865 66.1622 20.9942 67.8333 18.4967C65.5979 19.4896 63.1991 20.1556 60.68 20.4577C63.2515 18.9161 66.9053 15.2407 67.8333 12.3301Z" fill="#E50D42"/>
</svg>
