<svg width="52" height="51" viewBox="0 0 52 51" fill="none" xmlns="http://www.w3.org/2000/svg">
<path d="M39.3567 37.741C39.3567 38.8069 38.48 39.6719 37.3911 39.6719H14.6255C13.5387 39.6719 12.6588 38.807 12.6588 37.741V17.7929C18.6264 17.7715 32.5478 17.7715 39.3567 17.7929V37.741Z" fill="white"/>
<path d="M21.0923 7.56533C21.2046 7.78158 21.1193 8.05192 20.8958 8.16408C20.6743 8.27425 20.3987 8.18759 20.2864 7.97034L17.4087 2.46952C17.2944 2.25028 17.3858 1.98502 17.6074 1.87186C17.8289 1.7596 18.1024 1.84636 18.2167 2.0647L21.0924 7.56553L21.0923 7.56533Z" fill="white"/>
<path d="M31.5733 7.79692C31.4485 8.01009 31.172 8.0835 30.9535 7.9571C30.7372 7.83667 30.6633 7.56543 30.7902 7.35217L33.9414 2.00016C34.0662 1.78799 34.3449 1.71258 34.5591 1.83799C34.7775 1.95932 34.8513 2.23175 34.7266 2.44282L31.5732 7.79682L31.5733 7.79692Z" fill="white"/>
<path d="M46.307 32.3319C46.307 33.8833 45.0258 35.143 43.4408 35.143C41.8558 35.143 40.5715 33.8843 40.5715 32.3319V20.0297C40.5715 18.4751 41.8548 17.2196 43.4408 17.2196C45.0248 17.2196 46.307 18.4752 46.307 20.0297V32.3319Z" fill="white"/>
<path d="M11.4254 32.3319C11.4254 33.8833 10.14 35.143 8.56019 35.143C6.97419 35.143 5.69186 33.8843 5.69186 32.3319V20.0297C5.69186 18.4751 6.97308 17.2196 8.56019 17.2196C10.14 17.2196 11.4254 18.4752 11.4254 20.0297V32.3319Z" fill="white"/>
<path d="M23.9075 46.411C23.9075 47.9624 22.6242 49.2221 21.0371 49.2221C19.4553 49.2221 18.1741 47.9634 18.1741 46.411V34.1087C18.1741 32.5583 19.4553 31.2956 21.0371 31.2956C22.6231 31.2956 23.9075 32.5583 23.9075 34.1087V46.411Z" fill="white"/>
<path d="M33.851 46.411C33.851 47.9624 32.5676 49.2221 30.9816 49.2221C29.3998 49.2221 28.1154 47.9634 28.1154 46.411V34.1087C28.1154 32.5583 29.3988 31.2956 30.9816 31.2956C32.5666 31.2956 33.851 32.5583 33.851 34.1087V46.411Z" fill="white"/>
<path d="M26.0083 4.64807C19.0362 4.64807 13.2943 9.85216 12.5268 16.5413H39.4888C38.7234 9.85216 32.9847 4.64817 26.0083 4.64817V4.64807ZM19.9253 11.8585C19.3034 11.8585 18.8011 11.3679 18.8011 10.76C18.8011 10.1542 19.3034 9.6635 19.9253 9.6635C20.541 9.6635 21.0433 10.1541 21.0433 10.76C21.0433 11.3679 20.541 11.8585 19.9253 11.8585ZM32.1152 11.8585C31.4953 11.8585 30.993 11.3679 30.993 10.76C30.993 10.1542 31.4953 9.6635 32.1152 9.6635C32.7371 9.6635 33.2353 10.1541 33.2353 10.76C33.2353 11.3679 32.7372 11.8585 32.1152 11.8585Z" fill="white"/>
</svg>
