<svg width="39" height="47" viewBox="0 0 39 47" fill="none" xmlns="http://www.w3.org/2000/svg">
<path d="M32.2934 24.9711C32.2934 20.9855 34.4225 17.578 37.4446 16.1445C36.6033 15.0447 35.4753 14.0107 33.9572 12.9297C31.9926 11.5291 27.6404 11.3693 24.7875 12.0978C22.6208 12.6477 20.7737 13.7099 19.7867 13.7569C18.8937 13.8039 16.9761 12.6101 14.7859 12.0978C12.1445 11.4774 9.26339 11.8252 7.28469 12.9297C1.53189 16.1445 0.610687 19.4298 0.610687 26.2166C0.610687 34.0374 3.44479 40.6691 9.78039 45.3221C11.1716 46.342 13.672 46.9436 15.6178 46.154C17.291 45.4725 18.184 44.6406 19.7867 44.4949C22.1273 44.2834 23.2177 45.0683 24.3457 45.7686C25.3703 46.4031 27.7344 46.9154 28.9564 46.1587C33.2381 43.5079 36.608 39.1745 38.3893 34.1737C34.8737 33.0457 32.2934 29.3562 32.2934 24.9711ZM27.2879 7.1158C28.9893 4.4462 28.994 0.4559 28.9564 0.47C28.2514 0.705 25.8732 0.1504 22.2871 2.961C21.0369 3.9433 19.5 6.3591 18.9501 7.943C18.5318 9.1462 18.1229 12.0931 18.1135 12.0978C18.0712 12.1025 20.863 11.9474 22.2824 11.2659C23.7394 10.5703 26.1881 8.8454 27.2879 7.1158Z" fill="white"/>
</svg>
